<svg width="72" height="61" viewBox="0 0 72 61" fill="none" xmlns="http://www.w3.org/2000/svg">
<path d="M27.7151 16.3709C29.5283 20.2928 31.3365 21.4226 31.5608 22.1019C29.9736 21.4175 25.089 15.5253 23.6229 14.8742C21.6974 14.0192 20.086 11.918 15.6271 13.4594C13.6524 14.1421 12.1772 14.9443 11.2172 16.0228C10.257 17.1014 9.03917 19.0574 9.9817 20.8048C11.1747 23.0167 12.0261 24.7394 14.1198 26.0886C15.7087 27.1126 17.5256 28.9327 19.3879 29.5566C21.9557 30.4167 25.5601 31.5506 28.7398 32.9153C29.5351 33.2566 30.2115 33.5606 28.5223 33.5945C22.9108 33.7071 18.192 34.0142 16.7674 34.2772C14.8998 34.6219 12.6067 35.4702 9.9715 36.6682C8.21091 37.4686 5.87567 38.4489 4.36344 39.9706C2.66403 41.6806 0.747109 43.6712 1.0275 45.3755C1.3181 47.1419 1.93339 49.3019 3.63949 50.4375C5.51904 51.6884 8.57059 53.7046 12.7653 52.7056C15.1445 52.139 17.5339 52.1063 19.2741 51.3403C21.6159 50.3095 28.8249 45.3775 32.9849 42.6329C34.9664 41.3256 38.4078 39.0155 37.3371 39.7948C36.3124 40.5406 34.6119 42.0429 33.3129 43.8959L33.2682 43.9597C32.2029 45.4793 31.1016 47.0502 30.1979 48.6745C29.406 50.0978 27.7404 51.4811 28.2759 53.4548C28.8486 55.566 30.5389 59.2167 32.9271 59.5937C35.4355 59.9896 38.5758 60.3962 40.9161 59.2472C43.1304 58.1601 45.5922 56.7206 46.519 55.2059C47.4265 53.7228 48.5569 52.2063 48.8965 50.7105C49.3503 48.712 49.9274 46.3274 49.0614 43.5358C47.9839 40.0627 44.9448 34.6082 46.4052 35.4718C47.6576 36.2125 48.9944 37.1583 50.5432 37.8628C52.4228 38.7179 54.9767 39.3511 56.95 40.0252C59.7778 40.9911 61.3947 41.9614 64.5379 41.4997C66.4667 41.2164 69.0156 41.2197 69.9726 39.6156C70.6507 38.4789 71.2775 36.6087 70.8716 34.3727C70.1918 30.6283 70.4077 28.2551 68.1457 26.1876C65.5354 23.8017 63.3617 22.634 61.4059 22.1565C59.3088 21.6445 55.1875 21.2063 52.224 21.8203C48.6569 22.5593 42.7149 27.828 42.7752 24.4332C42.7803 24.1465 44.1782 23.9817 45.1034 22.7231C46.067 21.4124 46.9829 19.8597 47.1971 17.7141C47.5353 14.3264 47.4531 9.50816 46.5122 7.8172C45.7203 6.39385 45.4176 4.02415 42.9945 2.75355C40.6153 1.50599 36.2317 -0.273609 32.7963 2.36785C30.6499 4.01819 27.9922 4.72471 27.365 7.60216C26.8025 10.1826 26.6917 14.1575 27.7151 16.3709Z" stroke="white" stroke-width="2" stroke-linecap="round"/>
</svg>
