<svg width="325" height="450" viewBox="0 0 325 450" fill="none" xmlns="http://www.w3.org/2000/svg">
<path d="M160.292 2.15649C158.043 3.09181 156.928 17.8091 156.928 27.1285C153.929 23.1731 145.37 20.2343 140.943 16.2201C138.881 14.3495 136.405 12.3806 134.749 13.2395C134 13.6283 133.628 14.7439 133.633 15.8764C133.639 17.009 133.831 18.2349 134.58 19.2571C138.17 24.1535 143.048 30.0216 143.023 35.0337C143.018 36.1662 142.646 37.2818 141.885 37.4565C141.124 37.6312 140.039 36.6948 138.3 36.5155C130.979 35.7605 124.927 33.5384 118.771 34.4589C117.452 34.6561 116.016 35.3185 115.778 36.9212C115.22 40.6738 115.371 44.9603 117.677 47.052C119.74 48.9226 127.543 48.3938 136.474 50.2411C139.253 50.8158 138.618 52.0121 137.753 53.064C134.36 57.1941 128.851 58.8263 124.221 61.1325C119.323 63.5723 111.35 63.4317 110.525 67.8996C110.35 68.8461 111.041 70.4824 113.958 70.5196C127.642 70.6943 134.214 68.3861 137.398 72.4071C138.148 73.3537 138.871 74.5917 138.323 75.6019C135.871 80.1151 131.318 83.6909 128.364 90.4487C127.62 92.1503 127.62 94.0097 128.386 95.131C129.153 96.2522 130.716 96.9076 131.959 96.4269C134.394 95.4859 134.819 92.397 137.026 90.5952C141.169 87.2145 144.931 81.4916 150.181 80.656C151.314 80.4757 152.43 80.8476 152.988 81.7998C153.546 82.752 153.308 84.2835 153.737 85.9411C155.44 92.5109 154.064 102.353 159.385 108.654C160.332 109.775 161.448 110.147 162.581 109.95C163.713 109.752 164.926 109.096 165.771 108.062C167.456 106 168.739 103.774 169.333 101.104C170.838 94.3365 169.702 87.8525 173.475 83.276C174.242 82.3464 175.867 82.1007 177.049 82.9211C179.483 84.6114 180.202 87.7628 182.115 89.874C185.875 94.021 189.824 102.752 195.451 100.365C196.381 99.971 196.414 98.4782 196.189 97.165C195.253 91.6996 195.286 85.3714 192.993 81.2026C190.722 77.0725 184.32 72.1368 187.188 69.3814C187.768 68.8236 189.322 68.5616 190.575 69.0152C195.276 70.7168 202.834 79.1667 209.547 73.1171C211.034 71.7761 211.034 69.173 210.843 67.2967C210.651 65.4204 210.279 64.3048 209.518 63.5554C208.757 62.806 207.645 62.4231 206.317 62.0566C200.867 60.5522 193.763 61.1889 191.872 56.2249C191.511 55.2783 192.141 53.99 193.202 53.4133C195.265 52.2921 197.51 51.4669 199.971 50.7877C205.421 49.2832 212.698 49.3553 214.416 43.0741C214.777 41.7556 214.07 40.2876 210.403 40.0821C200.45 39.5243 191.227 43.4736 182.465 40.0765C180.983 39.5018 181.284 38.3482 181.924 37.2536C183.237 35.0055 184.518 32.231 186.247 29.3597C189.64 23.7253 193.772 19.3661 193.748 14.7157C193.743 13.5832 193.371 12.4676 192.61 11.7182C191.849 10.9688 190.717 10.415 189.6 10.6026C187.351 10.9801 184.433 11.0539 183.22 12.8676C180.194 17.3921 176.802 23.4583 173.447 26.7622C172.686 27.5116 171.558 28.0541 170.246 27.8779C167.433 27.5004 173.856 2.93645 163.488 1.02396C162.541 0.849293 161.461 1.6706 160.292 2.15649Z" stroke="white" stroke-width="2" stroke-linecap="round"/>
<path d="M150.374 180.137C148.314 186.901 145.289 198.126 143.799 202.587C141.518 200.318 142.659 196.958 142.1 194.874C141.541 192.789 141.541 189.823 141.349 187.576C139.261 181.598 136.32 176.266 131.172 174.676C125.714 172.991 116.742 172.542 107.63 159.266C97.4931 144.496 93.1035 137.181 88.4679 137.984C87.3334 138.181 85.6134 138.888 85.6571 143.305C85.8659 164.406 86.8274 169.37 90.0032 175.839C93.7679 183.508 95.0691 189.061 100.925 193.239C106.185 196.992 112.241 200.573 112.761 207.885C113.32 215.745 113.823 223.204 111.993 223.745C111.423 223.914 110.775 222.731 109.922 221.672C105.373 216.026 98.5674 211.043 93.1696 209.323C88.4623 207.823 83.8099 206.441 74.7241 204.452C66.2013 202.587 54.3548 203.259 49.1443 200.143C44.437 197.329 40.6681 190.199 36.5406 191.918C34.2886 192.857 30.5295 193.25 30.5351 195.11C30.5408 196.98 30.6479 203.483 33.933 210.284C36.1963 214.97 39.5537 219.085 44.674 224.335C51.2552 231.082 56.1994 237.081 61.4093 238.74C67.8494 240.791 76.9534 239.833 81.5424 243.235C87.4011 247.577 96.7858 252.905 97.7019 257.847C97.8769 258.791 97.2932 260.172 96.1836 260.651C91.8488 262.522 84.6915 264.612 78.4945 262.134C73.7872 260.252 68.7712 255.443 62.8655 255.583C54.5967 255.78 48.5316 256.383 42.3712 258.589C37.6638 260.274 32.5153 262.688 25.4158 263.078C15.0868 263.645 -1.98653 261.72 2.12752 267.96C4.97223 272.275 7.13785 278.61 11.926 281.067C16.6446 283.489 23.314 279.58 54.512 286.118C67.0592 288.747 72.2735 290.597 78.3477 291.169C84.3758 291.736 93.9684 292.781 92.8027 296.983C92.5939 297.736 90.9248 298.325 89.9749 299.613C85.8208 305.242 78.0604 307.571 71.3376 310.467C64.3725 313.467 57.8612 316.941 52.3446 319.456C47.4397 321.692 41.0775 322.729 38.0533 326.574C35.4061 329.939 30.8784 332.364 27.7017 337.44C24.8852 341.94 15.8416 346.521 16.8083 352.047C17.0058 353.176 17.6626 354.806 19.4667 354.845C27.5493 355.019 32.1256 354.25 41.4794 352.962C48.2525 352.03 54.1744 350.907 60.0942 349.777L60.3508 349.728C66.1536 348.621 72.9255 347.33 77.2132 343.962C81.7343 340.412 86.0292 337.634 92.6447 335.355C97.5383 333.67 102.025 330.432 107.506 331.248C108.827 331.445 110.379 332.279 109.927 333.321C108.793 335.939 106.172 339.685 104.283 344.181C102.392 348.681 99.8543 354.311 96.1949 367.424C94.1065 374.907 88.5704 382.217 85.087 388.003C80.5377 395.559 71.7732 406.691 70.0394 417.987C69.2943 422.841 69.4631 427.297 71.7552 428.628C72.7035 429.178 73.9204 428.972 74.9555 428.24C79.4766 425.043 83.8915 421.165 88.5018 418.504C93.4067 415.672 98.9318 411.737 103.369 409.138C108.827 405.942 113.132 401.683 116.339 393.014C119.754 383.784 121.929 370.623 126.126 368.126C128.006 367.008 137.375 352.581 139.492 359.182C141.541 365.57 142.638 372.517 143.81 375.648C146.056 381.649 149.08 387.211 151.52 392.497C153.597 396.997 158.388 403.203 155.832 418.009C153.575 431.088 150.267 441.161 154.348 447.179C155.11 448.302 156.368 449.422 157.362 448.842C159.614 447.527 162.582 445.24 163.751 442.089C165.631 437.021 167.29 430.156 169.017 423.92C170.891 417.155 172.07 410.617 174.097 405.009C175.79 400.323 177.757 377.192 179.363 361.547C180.306 352.367 180.794 339.174 184.449 341.923C185.95 343.052 186.938 345.371 188.213 348.125C191.594 355.423 192.368 360.32 195.737 365.345C199.135 370.412 203.48 375.317 205.705 380.137C207.782 384.638 211.234 388.863 213.799 393.812C216.813 399.627 218.383 405.176 222.643 413.105C225.46 418.346 226.39 423.86 230.173 427.33C232.617 429.571 235.656 431.016 238.453 431.813C239.774 432.189 241.265 432.6 241.45 429.116C242.009 418.627 243.041 408.043 240.496 402.762C238.239 398.076 240.947 392.033 235.981 377.649C233.723 371.109 232.935 365.365 228.446 359.873C223.541 353.873 218.207 348.29 216.226 343.024C214.533 338.524 210.403 327.177 213.985 329.748C215.3 330.692 216.179 333.75 219.082 335.383C227.379 340.052 245.862 338.784 256.515 341.923C261.606 343.423 267.355 344.92 272.511 348.861C278.155 353.176 291.136 374.579 292.627 366.654C293.936 359.693 290.393 331.894 283.946 325.984C279.239 321.669 274.095 317.601 269.085 316.068C264.18 314.568 257.551 314.081 252.146 311.197C246.502 308.186 242.266 303.868 240.874 299.011C240.496 297.691 240.124 296.208 242.049 295.466C243.973 294.725 248.087 294.89 250.887 294.534C258.219 293.601 263.863 291.275 270.445 290.601C277.794 289.848 284.2 286.656 291.34 286.107C301.116 285.354 312.612 287.552 321.424 283.101C322.925 282.342 323.67 281.23 323.467 280.292C323.264 279.354 322.102 278.654 321.204 277.668C317.62 273.735 313.175 270.776 310.107 267.37C307.076 264.005 301.339 260.455 295.234 259.887C283.235 258.769 263.323 263.889 245.729 259.701C238.6 258.005 226.324 253.784 230.19 253.521C235.654 253.151 243.043 252.839 247.67 249.768C249.922 248.274 251 245.825 252.366 243.206C254.81 238.521 254.893 232.335 259.337 227.285C261.967 224.296 265.065 223.304 267.995 222.622C273.639 221.307 278.351 217.905 287.756 214.183C294.343 211.576 303.147 212.308 305.225 206.88C305.586 205.936 304.908 204.305 302.549 204.267C291.656 204.093 272.997 201.934 259.292 205.964C252.891 207.846 246.94 209.175 242.178 212.149C237.087 215.329 222.382 227.838 220.177 218.683C219.816 217.183 224.136 214.54 226.216 209.312C228.463 203.666 227.75 196.637 230.359 188.306C234.107 176.339 236.807 170.123 242.026 163.423C246.547 157.62 253.158 157.404 255.939 153.125C256.684 151.979 256.684 149.754 256.108 148.069C255.533 146.383 254.471 144.946 252.129 144.715C246.491 144.159 239.97 144.612 232.933 148.114L232.201 148.478C221.047 154.028 215.597 156.739 211.513 162.159C206.992 168.159 202.98 178.864 198.909 187.643C194.575 196.992 190.708 201.259 187.435 204.469C186.673 205.217 185.194 205.747 184.996 204.818C184.437 202.194 188.351 197.818 185.374 181.384C184.054 174.092 181.841 169.383 178.026 163.429C175.023 158.743 172.184 154.601 171.264 148.249C170.124 140.383 173.515 123.014 166.173 120.186C165.224 119.821 163.975 119.984 162.972 120.759C158.835 123.956 155.641 128.245 154.89 134.259C152.83 150.743 152.087 174.512 150.374 180.137Z" stroke="white" stroke-width="2" stroke-linecap="round"/>
</svg>
