<svg width="363" height="338" viewBox="0 0 363 338" fill="none" xmlns="http://www.w3.org/2000/svg">
<path d="M56.8868 294.484C58.0859 299.265 60.1357 303.354 60.8121 306.418C62.5338 309.513 65.26 309.503 67.1663 310.01C69.0725 310.518 72.1164 310.518 73.6383 304.245C75.5087 272.228 76.6033 264.062 77.0409 255.795C77.9069 239.433 79.2976 234.374 81.4888 230.388C84.4046 225.084 87.2433 218.558 91.9169 216.563C94.3049 215.543 96.8559 213.906 98.7477 214.697C100.792 215.553 103.197 217.035 104.897 219.842C109.35 227.196 113.42 232.641 115.135 236.742C116.852 240.847 117.962 246.215 120.603 250.921C123.001 255.195 123.71 262.861 125.384 268.862C127.101 275.016 129.409 279.642 131.538 284.061C133.926 289.016 136.807 293.005 139.737 297.384C143.519 303.036 148.632 308.84 151.867 312.752C155.121 316.687 159.559 321.774 167.445 322.478C179.041 323.513 184.45 325.095 189.285 325.896C195.439 326.916 200.142 328.444 204.658 330.17C210.464 332.388 215.832 334.641 222.957 334.945C235.081 335.463 241.821 337.099 247.374 336.995C256.931 336.816 263.857 337.402 270.075 331.169C272.284 328.955 275.602 326.063 275.528 320.541C275.338 306.377 274.959 298.401 271.408 295.129C269.189 293.085 265.764 292.048 264.065 289.662C262.363 287.274 262.411 283.719 261.513 280.263C260.314 275.652 260.641 270.253 257.577 266.433C253.447 261.283 246.816 256.984 242.88 254.309C238.094 251.055 233.651 244.717 229.562 240.985C223.705 235.641 215.772 227.981 211.786 223.89C205.298 217.234 201.728 212.484 197.105 209.389C191.955 205.94 181.437 194.438 173.702 189.398C168.731 186.16 162.518 182.954 146.004 184.633C137.636 185.483 131.487 186.024 124.672 187.538C118.512 188.906 111.623 190.55 105.886 191.807C100.413 193.006 95.8108 199.057 84.1996 206.667C82.6828 207.662 83.1456 206.334 83.3644 204.935C84.3841 198.417 84.647 190.812 86.439 185.463C88.1556 180.339 90.4658 175.076 91.22 169.065C91.9067 163.592 93.7103 158.049 95.837 152.667C99.1012 144.407 101.501 133.654 104.21 130.125C107.628 125.672 117.562 113.627 126.44 106.538C136.694 98.3488 142.776 94.8393 147.772 93.2399C152.046 91.8717 164.108 88.6217 171.344 93.2552C175.618 95.9916 177.792 99.9523 181.936 103.509C187.937 108.659 195.522 112.777 197.986 117.001C200.891 121.982 201.83 128.869 203.449 135.987C206.016 147.276 209.982 160.752 212.329 169.106C213.866 174.579 215.272 180.883 219.17 185.504C223.787 190.977 228.122 196.253 231.981 201.902C236.434 208.42 241.26 215.849 245.304 220.519C250.803 226.868 255.728 238.477 268.062 238.956C280.852 239.453 286.782 238.319 291.254 235.348C295.877 232.279 301.313 230.88 307.324 228.344C315.001 225.105 319.843 223.196 321.821 218.09C323.876 212.786 330.444 203.483 326.93 189.035C325.229 182.04 323.981 177.683 319.751 171.284C318.731 169.741 318.393 168.389 320.315 167.712C322.236 167.036 326.506 167.763 328.847 166.687C334.822 163.941 340.826 160.125 342.657 155.747C344.373 151.642 348.518 137.403 343.666 130.125C342.303 128.08 340.487 126.916 338.537 125.862C334.432 123.643 326.01 123.69 327.109 119.707C327.627 117.832 330.208 115.211 335.498 111.852C340.622 108.598 346.267 106.599 349.667 101.598C352.572 97.324 356.841 92.9334 358.886 87.2495C360.423 82.9758 362.14 77.1763 360.069 72.558C358.004 67.9512 355.048 63.8582 350.661 61.4637C345.009 58.3789 333.476 57.7038 334.453 52.9214C334.801 51.215 336.502 49.1534 336.159 47.1104L336.145 47.024C335.801 44.9776 335.282 41.8804 332.721 40.6281C331.337 39.9517 329.308 39.9517 327.945 40.4744C326.582 40.997 325.981 42.1209 325.044 42.6932C321.109 45.0965 312.553 50.5826 305.91 54.4792C300.939 57.395 295.503 60.1232 290.537 62.5091C285.566 64.897 279.841 67.5158 269.337 70.1956C260.621 72.4196 254.303 74.5992 248.512 77.0264C243.219 79.2452 238.569 81.3069 233.826 81.8023C228.87 82.3199 223.621 86.6355 213.503 83.4985C211.817 82.9758 212.155 81.9611 212.672 80.9311C213.19 79.9011 213.767 78.8132 214.553 77.8565C217.638 74.1004 221.86 71.6406 225.832 69.4936C229.936 67.2747 234.369 65.8595 239.842 62.4886C244.285 59.7522 250.079 56.1011 255.727 54.4638C261.031 52.9265 266.221 52.7204 271.787 50.021C277.08 47.4537 281.134 44.6206 286.13 43.0212C290.404 41.653 294.951 40.9417 298.598 37.8917C302.702 34.4584 310.068 30.2961 308.313 25.7572C307.458 23.5435 305.849 21.833 303.691 21.3246C295.754 19.4542 284.096 19.8245 279.945 21.6833C274.99 23.9022 270.959 27.023 266.627 27.8223C265.766 27.9812 264.359 27.2878 264.592 26.4439C265.11 24.5684 272.165 22.5896 273.309 15.6673C273.985 11.573 274.02 7.85668 272.607 6.464C271.915 5.78246 270.905 5.1578 269.348 5.27515C262.343 5.80296 256.735 7.90115 251.418 9.55399C245.945 11.2553 240.808 13.4544 235.02 15.1908C229.895 16.7281 226.29 18.8737 221.701 21.1709C217.597 23.2258 213.684 26.1272 210.428 29.8874C207.02 33.8229 204.372 37.9796 195.537 49.401C183.756 64.6306 178.135 75.311 173.184 76.6831C170.115 77.5337 165.852 76.981 161.736 78.0461C155.756 79.5937 150.049 80.9163 144.831 83.1756C139.707 85.3945 134.62 86.1364 131.339 89.6733C126.732 94.6388 121.37 100.177 115.263 106.604C105.189 117.206 97.9516 123.541 94.105 131.539C90.1644 139.733 86.0233 144.471 83.6821 149.823C78.2144 162.321 75.7001 172.477 75.3294 179.565C74.4633 196.122 73.8523 205.881 68.6523 207.354C66.2644 208.031 63.5627 208.066 62.17 206.652C61.4885 205.96 61.1809 204.93 60.6327 203.916C58.4139 199.811 55.5354 195.154 55.8568 189.547C56.3846 180.339 59.5649 176.41 60.8172 172.145C62.5338 166.298 65.1468 156.048 67.8222 146.851C69.7079 140.369 72.134 133.74 72.7723 127.553C73.459 120.896 75.9421 116.25 78.9267 105.513C80.6331 99.3737 81.7262 93.2736 82.1653 87.7568C82.6828 81.254 84.2299 71.5277 87.469 62.4681C90.9023 52.8651 94.1715 43.4754 95.6679 35.1399C97.7074 23.7792 97.5725 9.1976 93.4235 5.43401C91.548 3.73272 89.6598 1.58542 86.7464 1.34477C82.6521 1.00656 79.3529 2.52659 74.9297 2.7181C59.0698 3.40476 52.0671 3.66215 47.4734 5.96694C43.0203 8.20116 38.4147 11.0831 33.9758 15.201C29.369 19.4747 25.8395 24.8067 20.8267 29.375C17.0706 32.7981 13.5637 36.3002 12.1256 42.0219C10.2244 49.5855 5.84536 66.0011 4.26992 79.9524C3.41927 87.4852 0.817977 96.4142 2.56863 116.863L2.62383 117.508C3.45582 127.235 4.29524 137.05 6.32991 142.459C8.91258 149.326 12.6933 157.595 15.0464 163.479C18.1159 171.156 19.5292 177.771 22.2154 183.28C25.659 190.341 32.5627 204.687 38.7978 209.071C45.1315 213.524 54.417 216.123 56.0515 221.887C60.8121 238.674 59.2188 264.978 58.9314 270.758C58.4139 281.165 54.9729 286.852 56.8868 294.484Z" stroke="white" stroke-width="2" stroke-linecap="round"/>
</svg>
